<svg width="20" height="17" viewBox="0 0 20 17" fill="none" xmlns="http://www.w3.org/2000/svg">
<path d="M13.3333 1.41659C13.3333 1.02539 13.7064 0.708252 14.1667 0.708252C14.6269 0.708252 15 1.02539 15 1.41659V5.66658C15 6.05778 14.6269 6.37492 14.1667 6.37492C13.7064 6.37492 13.3333 6.05778 13.3333 5.66658V1.41659Z" fill="#ED5303"/>
<path fill-rule="evenodd" clip-rule="evenodd" d="M14.4621 15.7479C12.7787 15.3894 9.33241 14.3787 6.20814 11.7231C3.08388 9.06751 1.89485 6.13816 1.47307 4.70727C1.23069 3.88495 1.66715 3.09144 2.40725 2.6421L4.34746 1.46412C5.4827 0.774868 7.06194 1.00875 7.85604 1.98373L9.07749 3.48345C9.59599 4.12006 9.41716 4.99258 8.67591 5.44262L7.70196 6.03397C7.84937 6.51323 8.30784 7.49742 9.74366 8.71788C11.1795 9.93834 12.3374 10.3281 12.9012 10.4534L13.5969 9.62546C14.1264 8.9954 15.1529 8.84339 15.9018 9.28412L17.6662 10.3224C18.8132 10.9974 19.0884 12.3397 18.2776 13.3047L16.8917 14.9538C16.363 15.583 15.4295 15.9539 14.4621 15.7479ZM7.38665 10.7214C10.2278 13.1363 13.3632 14.0534 14.8672 14.3737C15.0869 14.4205 15.3527 14.3479 15.5354 14.1305L16.9213 12.4813C17.1916 12.1596 17.0999 11.7121 16.7176 11.4872L14.9532 10.4489L14.2066 11.3373C13.9015 11.7004 13.3372 11.9852 12.6802 11.8647C11.8602 11.7143 10.3444 11.232 8.56516 9.7196C6.78592 8.20731 6.2185 6.91882 6.04157 6.22182C5.89981 5.66337 6.23485 5.18377 6.662 4.92443L7.70721 4.28983L6.48572 2.79011C6.22102 2.46511 5.6946 2.38716 5.3162 2.6169L3.37598 3.79489C3.12012 3.95023 3.0347 4.17612 3.08976 4.36297C3.46658 5.64133 4.5455 8.30641 7.38665 10.7214Z" fill="#ED5303"/>
<path d="M17.5 0.708252C17.0397 0.708252 16.6667 1.02539 16.6667 1.41659V5.66658C16.6667 6.05778 17.0397 6.37492 17.5 6.37492C17.9602 6.37492 18.3333 6.05778 18.3333 5.66658V1.41659C18.3333 1.02539 17.9602 0.708252 17.5 0.708252Z" fill="#ED5303"/>
</svg>
