<svg width="61" height="61" viewBox="0 0 61 61" fill="none" xmlns="http://www.w3.org/2000/svg">
<path d="M59.7603 28.4272L32.7856 1.45156C32.7856 1.45156 31.9072 0.5 30.5075 0.5C29.1078 0.5 28.28 1.42906 28.28 1.42906L19.25 10.4412V5.1875C19.25 4.66906 18.8309 4.25 18.3125 4.25H12.6875C12.1691 4.25 11.75 4.66906 11.75 5.1875V17.9272L1.23406 28.4216C0.725 28.9306 0.5 29.7237 0.5 30.5C0.5 32.0525 1.75906 33.3125 3.3125 33.3125C4.08875 33.3125 4.87063 33.0772 5.37969 32.5681L6.125 31.8228V56.75C6.125 58.8228 7.80219 60.5 9.875 60.5H51.125C53.1978 60.5 54.875 58.8228 54.875 56.75V31.8069L55.6287 32.5606C56.1378 33.0678 56.9113 33.3125 57.6875 33.3125C59.2409 33.3125 60.5 32.0534 60.5 30.5C60.5 29.7228 60.2694 28.9362 59.7603 28.4272ZM23 38.9375C23 39.4559 22.5809 39.875 22.0625 39.875H14.5625C14.0441 39.875 13.625 39.4559 13.625 38.9375V31.4375C13.625 30.9191 14.0441 30.5 14.5625 30.5H22.0625C22.5809 30.5 23 30.9191 23 31.4375V38.9375ZM36.125 58.6269H24.875V44.5644C24.875 44.0459 25.2941 43.6269 25.8125 43.6269H35.1875C35.7059 43.6269 36.125 44.0459 36.125 44.5644V58.6269ZM47.375 38.9375C47.375 39.4559 46.9559 39.875 46.4375 39.875H38.9375C38.4191 39.875 38 39.4559 38 38.9375V31.4375C38 30.9191 38.4191 30.5 38.9375 30.5H46.4375C46.9559 30.5 47.375 30.9191 47.375 31.4375V38.9375ZM57.6875 31.4375C57.4287 31.4375 57.1231 31.4038 56.9544 31.2341L31.1712 5.45094C30.9884 5.26813 30.7484 5.17625 30.5084 5.17625C30.2684 5.17625 30.0284 5.26813 29.8456 5.45094L4.05406 31.2434C3.88437 31.4131 3.57125 31.4375 3.3125 31.4375C2.79406 31.4375 2.375 31.0184 2.375 30.5C2.375 30.2412 2.39 29.9169 2.55969 29.7472L29.5953 2.75938C29.5953 2.75938 29.945 2.375 30.5084 2.375C31.0719 2.375 31.4291 2.74813 31.4291 2.74813L58.4347 29.7528C58.6044 29.9225 58.625 30.2412 58.625 30.5C58.625 31.0175 58.2059 31.4375 57.6875 31.4375Z" fill="#ED5303"/>
</svg>
