<svg width="56" height="49" viewBox="0 0 56 49" fill="none" xmlns="http://www.w3.org/2000/svg">
<path d="M51.1666 30.625C51.1666 38.3245 51.1666 40.1328 48.4817 42.5246C45.797 44.9167 41.4756 44.9167 32.8333 44.9167" stroke="#ED5303" stroke-width="3.75" stroke-linecap="round"/>
<path d="M23.6666 4.08331C15.0242 4.08331 10.703 4.08331 8.0181 6.47527C5.33325 8.86724 5.33325 10.6754 5.33325 18.375" stroke="#ED5303" stroke-width="3.75" stroke-linecap="round"/>
<path d="M28.2499 14.2917C21.5415 14.2917 16.9758 17.4812 14.2534 20.2946C12.89 21.7035 12.2083 22.4081 12.2083 24.5C12.2083 26.5919 12.89 27.2965 14.2534 28.7054C16.9758 31.5189 21.5415 34.7084 28.2499 34.7084C34.9583 34.7084 39.524 31.5189 42.2465 28.7054C43.6098 27.2965 44.2916 26.5919 44.2916 24.5C44.2916 22.4081 43.6098 21.7035 42.2465 20.2946C41.0198 19.027 39.419 17.683 37.4166 16.5888" stroke="#ED5303" stroke-width="3.75" stroke-linecap="round"/>
<path d="M28.2501 28.5834C30.7814 28.5834 32.8334 26.7552 32.8334 24.5C32.8334 22.2449 30.7814 20.4167 28.2501 20.4167C25.7188 20.4167 23.6667 22.2449 23.6667 24.5C23.6667 26.7552 25.7188 28.5834 28.2501 28.5834Z" stroke="#ED5303" stroke-width="3.75"/>
<path d="M23.6666 44.9167C22.8664 44.9167 22.1032 44.9167 21.3749 44.9148M5.33325 30.625C5.33325 38.3245 5.33325 40.1328 8.0181 42.5246C9.51497 43.8583 11.5205 44.4483 14.4999 44.7094" stroke="#ED5303" stroke-width="3.75" stroke-linecap="round"/>
<path d="M32.8333 4.08331C33.6335 4.08331 34.3966 4.08331 35.1249 4.08521M51.1666 18.375C51.1666 10.6754 51.1666 8.86724 48.4817 6.47527C46.9848 5.14169 44.9793 4.55161 41.9999 4.29052" stroke="#ED5303" stroke-width="3.75" stroke-linecap="round"/>
</svg>
