<svg width="45" height="53" viewBox="0 0 45 53" fill="none" xmlns="http://www.w3.org/2000/svg">
<path d="M23.7343 9.9202C17.2283 9.9202 11.9351 15.2133 11.9351 21.7195C11.9351 23.5969 12.3872 25.4652 13.2421 27.1223C13.4428 27.5119 13.9221 27.6645 14.3115 27.4639C14.7012 27.2628 14.8542 26.7841 14.653 26.3944C13.9031 24.9408 13.5227 23.3679 13.5227 21.7195C13.5227 16.0887 18.1035 11.508 23.7342 11.508C29.365 11.508 33.9458 16.0887 33.9458 21.7195C33.9458 25.1051 32.272 28.2644 29.468 30.1704C29.1054 30.417 29.0114 30.9107 29.2579 31.2734C29.4116 31.4993 29.6609 31.6209 29.9149 31.6209C30.0688 31.6209 30.224 31.5763 30.3606 31.4835C33.5999 29.2814 35.5336 25.6314 35.5336 21.7195C35.5337 15.2133 30.2406 9.9202 23.7343 9.9202Z" fill="#ED5303"/>
<path d="M26.3142 29.2475C26.4087 29.2475 26.5047 29.2304 26.5982 29.1945C29.6721 28.0161 31.7373 25.0122 31.7373 21.7193C31.7373 17.3064 28.1473 13.7164 23.7343 13.7164C19.3215 13.7164 15.7311 17.3064 15.7311 21.7193C15.7311 23.7707 16.5065 25.7214 17.9143 27.2125C18.215 27.5314 18.7177 27.5461 19.0364 27.2448C19.3554 26.9438 19.3698 26.4415 19.0686 26.1228C17.9404 24.9273 17.3188 23.3635 17.3188 21.7193C17.3188 18.182 20.1968 15.3041 23.7342 15.3041C27.2717 15.3041 30.1495 18.182 30.1495 21.7193C30.1495 24.3592 28.4938 26.7673 26.0297 27.7121C25.6204 27.8691 25.4157 28.3282 25.5725 28.7376C25.6938 29.0534 25.9948 29.2475 26.3142 29.2475Z" fill="#ED5303"/>
<path d="M8.80712 30.6489C9.24552 30.6489 9.60095 30.2933 9.60095 29.8549C9.60095 29.4167 9.24552 29.0612 8.80712 29.0612H6.58595C6.14767 29.0612 5.79224 29.4167 5.79224 29.8549V40.8982C5.79224 41.3365 6.14767 41.6921 6.58595 41.6921H11.705H26.1342C28.0182 41.6921 29.8808 41.0625 31.3786 39.9194L36.1977 36.2415C37.5397 35.2176 37.8186 33.2775 36.8195 31.9171C35.8192 30.5548 33.883 30.2412 32.5034 31.2181L30.0363 32.9653C29.6786 33.2188 29.5941 33.7143 29.8474 34.0722C30.101 34.4297 30.5964 34.5143 30.9541 34.2611L33.4213 32.5137C34.0986 32.0337 35.0491 32.1884 35.5397 32.8568C36.0304 33.5247 35.8935 34.4768 35.2347 34.9794L30.4154 38.6571C29.1925 39.5904 27.6723 40.1043 26.1342 40.1043H12.4989V30.6488H17.8731C18.8056 30.6488 19.6861 31.0076 20.3527 31.6594C21.3182 32.6025 22.5929 33.1219 23.9424 33.1219H25.4802C26.2003 33.1219 26.7859 33.7075 26.7859 34.4274C26.7859 35.3871 26.0052 36.1681 25.0453 36.1681H19.4752C19.0369 36.1681 18.6813 36.5235 18.6813 36.9618C18.6813 37.4002 19.0369 37.7556 19.4752 37.7556H25.0453C26.8805 37.7556 28.3736 36.2625 28.3736 34.4274C28.3736 32.8323 27.0756 31.5342 25.4802 31.5342H23.9424C23.01 31.5342 22.1293 31.1753 21.4624 30.5237C20.4976 29.5803 19.2229 29.061 17.8731 29.061H11.7049C11.2667 29.061 10.9111 29.4164 10.9111 29.8547V40.1042H7.37977V30.6487L8.80712 30.6489Z" fill="#ED5303"/>
<path d="M23.7343 27.5536C24.1727 27.5536 24.5281 27.1981 24.5281 26.7598V26.1171C25.646 25.9109 26.496 24.9309 26.496 23.7543C26.496 22.4282 25.4172 21.3495 24.0912 21.3495H23.9685H23.5021H23.3794C22.9288 21.3495 22.5622 20.9832 22.5622 20.5326C22.5622 20.082 22.9288 19.7157 23.3794 19.7157H25.2355C25.6739 19.7157 26.0293 19.3601 26.0293 18.9218C26.0293 18.4836 25.6739 18.128 25.2355 18.128H24.5283V17.6211C24.5283 17.1827 24.1728 16.8272 23.7344 16.8272C23.2962 16.8272 22.9407 17.1828 22.9407 17.6211V18.1701C21.8237 18.3771 20.9747 19.3568 20.9747 20.5327C20.9747 21.8586 22.0534 22.9373 23.3795 22.9373H23.5022H23.9686H24.0913C24.5419 22.9373 24.9084 23.3038 24.9084 23.7544C24.9084 24.205 24.5419 24.5713 24.0913 24.5713H22.2351C21.7969 24.5713 21.4413 24.9269 21.4413 25.3652C21.4413 25.8036 21.7969 26.159 22.2351 26.159H22.9407V26.7599C22.9406 27.1981 23.296 27.5536 23.7343 27.5536Z" fill="#ED5303"/>
<path d="M43.9419 46.3152L37.4604 41.839C37.0997 41.59 36.605 41.6802 36.356 42.0411C36.1069 42.4019 36.1973 42.8963 36.558 43.1455L42.0937 46.9686L37.8032 49.932V48.5898C37.8032 48.1516 37.4476 47.796 37.0093 47.796H12.0661V46.141H37.0093C37.4476 46.141 37.8032 45.7854 37.8032 45.3472C37.8032 44.9089 37.4476 44.5534 37.0093 44.5534H11.2721C10.8339 44.5534 10.4784 44.9089 10.4784 45.3472V48.5898C10.4784 49.0281 10.8339 49.3836 11.2721 49.3836H36.2154V51.4449C36.2154 51.74 36.3791 52.0108 36.6404 52.1479C36.7563 52.2087 36.8829 52.2387 37.0092 52.2387C37.1676 52.2387 37.3253 52.1913 37.4604 52.0981L43.9419 47.6216C44.1566 47.4734 44.2847 47.2291 44.2847 46.9684C44.2847 46.7076 44.1566 46.4634 43.9419 46.3152Z" fill="#ED5303"/>
<path d="M7.92727 44.5533H4.40075C3.96247 44.5533 3.60692 44.9087 3.60692 45.347V48.5898C3.60692 49.0281 3.96247 49.3836 4.40075 49.3836H7.92727C8.36555 49.3836 8.72098 49.0281 8.72098 48.5898V45.347C8.72098 44.9087 8.36555 44.5533 7.92727 44.5533ZM7.13332 47.796H5.19458V46.141H7.13332V47.796Z" fill="#ED5303"/>
<path d="M1.05562 44.5533C0.617342 44.5533 0.261795 44.9087 0.261795 45.347V48.5898C0.261795 49.0281 0.617342 49.3836 1.05562 49.3836C1.4939 49.3836 1.84945 49.0281 1.84945 48.5898V45.347C1.84945 44.9087 1.4939 44.5533 1.05562 44.5533Z" fill="#ED5303"/>
<path d="M1.05809 6.68476L7.53961 11.1612C7.67743 11.2562 7.83446 11.3018 7.99008 11.3018C8.24215 11.3018 8.49012 11.1822 8.64399 10.9592C8.89313 10.5984 8.80266 10.1041 8.44196 9.8548L2.90626 6.03144L7.19684 3.06801V4.41015C7.19684 4.84843 7.55239 5.20398 7.99067 5.20398H32.9339V6.85902H7.99079C7.55251 6.85902 7.19696 7.21457 7.19696 7.65285C7.19696 8.09113 7.55251 8.44668 7.99079 8.44668H33.7279C34.1661 8.44668 34.5216 8.09113 34.5216 7.65285V4.41015C34.5216 3.97176 34.1661 3.61633 33.7279 3.61633H8.78461V1.555C8.78461 1.25992 8.6209 0.989099 8.35958 0.851872C8.09825 0.714997 7.78219 0.734099 7.53961 0.901794L1.05809 5.37836C0.843403 5.52648 0.715317 5.77082 0.715317 6.03156C0.715317 6.2923 0.843403 6.53652 1.05809 6.68476Z" fill="#ED5303"/>
<path d="M37.0728 8.44668H40.5993C41.0375 8.44668 41.3931 8.09114 41.3931 7.65286V4.41016C41.3931 3.97176 41.0375 3.61633 40.5993 3.61633H37.0728C36.6344 3.61633 36.2789 3.97188 36.2789 4.41016V7.65286C36.2789 8.09125 36.6344 8.44668 37.0728 8.44668ZM37.8667 5.20399H39.8054V6.85903H37.8667V5.20399Z" fill="#ED5303"/>
<path d="M43.9444 3.61633C43.5061 3.61633 43.1505 3.97188 43.1505 4.41016V7.65286C43.1505 8.09114 43.5061 8.44668 43.9444 8.44668C44.3827 8.44668 44.7382 8.09114 44.7382 7.65286V4.41016C44.7383 3.97176 44.3827 3.61633 43.9444 3.61633Z" fill="#ED5303"/>
</svg>
