<svg width="61" height="61" viewBox="0 0 61 61" fill="none" xmlns="http://www.w3.org/2000/svg">
<g clip-path="url(#clip0_178_3896)">
<path d="M56.5541 38.8075C55.1345 38.1872 53.4803 38.8351 52.8599 40.255C48.9754 49.1446 40.1987 54.8886 30.4998 54.8886C22.7342 54.8886 15.5629 51.2043 11.0177 45.1738L12.691 45.5068C14.2106 45.8084 15.6876 44.8222 15.9902 43.3025C16.2925 41.7828 15.3056 40.3057 13.786 40.0032L5.92987 38.4405C5.19968 38.2955 4.44254 38.4459 3.82379 38.8595C3.20493 39.2728 2.77579 39.9151 2.63071 40.6448L1.06767 48.5011C0.765449 50.0208 1.75228 51.4979 3.27196 51.8004C3.45676 51.8371 3.64098 51.8548 3.82227 51.8548C5.13359 51.8548 6.30546 50.931 6.571 49.5961L6.72873 48.8031C12.328 56.0708 21.0568 60.5001 30.4998 60.5001C42.429 60.5001 53.224 53.4354 58.0016 42.5022C58.622 41.0819 57.9739 39.4279 56.5541 38.8075Z" fill="#ED5303"/>
<path d="M57.7277 9.20136C56.2082 8.89878 54.7309 9.88631 54.4287 11.4059L54.2711 12.1979C48.672 4.92966 39.9428 0.5 30.4999 0.5C18.5701 0.5 7.77522 7.56472 2.99799 18.498C2.3776 19.9179 3.02564 21.5718 4.44548 22.1922C5.86496 22.8128 7.51929 22.1646 8.13968 20.7447C12.0238 11.8551 20.8005 6.11126 30.4999 6.11126C38.2658 6.11126 45.4378 9.79631 49.9832 15.8277L48.3096 15.4948C46.7878 15.1926 45.3126 16.1795 45.0103 17.6993C44.7081 19.219 45.6949 20.6961 47.2148 20.9983L55.0709 22.5609C55.2525 22.597 55.4356 22.6148 55.6181 22.6148C56.1688 22.6148 56.7122 22.4525 57.177 22.1419C57.7957 21.7286 58.2247 21.0861 58.3699 20.3565L59.9325 12.5004C60.2345 10.9805 59.2474 9.50358 57.7277 9.20136Z" fill="#ED5303"/>
<path d="M39.5118 22.7287L32.0302 17.8608C31.0996 17.2553 29.8999 17.2553 28.97 17.8605L21.4879 22.7287C20.6922 23.2464 20.2125 24.1313 20.2125 25.0804V37.0462C20.2125 38.5957 21.4686 39.8518 23.018 39.8518H37.9817C39.5312 39.8518 40.7873 38.5957 40.7873 37.0462V25.0803C40.7874 24.1312 40.3074 23.2463 39.5118 22.7287Z" fill="#ED5303"/>
<path d="M58.0016 42.5017C58.622 41.0819 57.974 39.4279 56.5541 38.8075C55.1345 38.1872 53.4803 38.8351 52.8599 40.255C48.9754 49.1444 40.1989 54.8884 30.5002 54.8886V60.4999C42.4291 60.4994 53.224 53.4349 58.0016 42.5017Z" fill="#ED5303"/>
<path d="M57.7277 9.20136C56.2082 8.89878 54.7309 9.88631 54.4287 11.4059L54.2711 12.1979C48.672 4.92966 39.943 0.500234 30.5002 0.5V6.11126C38.2662 6.11126 45.4379 9.79655 49.9832 15.8277L48.3095 15.4948C46.7877 15.1926 45.3126 16.1795 45.0103 17.6993C44.708 19.219 45.6949 20.6961 47.2148 20.9983L55.0709 22.5609C55.2525 22.597 55.4355 22.6148 55.6181 22.6148C56.1688 22.6148 56.7122 22.4525 57.1769 22.1419C57.7957 21.7286 58.2247 21.0861 58.3699 20.3565L59.9325 12.5004C60.2345 10.9805 59.2474 9.50358 57.7277 9.20136Z" fill="#ED5303"/>
<path d="M37.9817 39.852C39.5312 39.852 40.7873 38.5959 40.7873 37.0465V25.0805C40.7873 24.1313 40.3073 23.2465 39.5118 22.7288L32.0302 17.8609C31.565 17.5581 31.0324 17.4068 30.4999 17.4068V39.8521H37.9817V39.852Z" fill="#ED5303"/>
<path d="M39.8496 29.1033C39.3249 29.1033 38.7944 28.9562 38.322 28.649L30.5002 23.5596L22.6783 28.649C21.3801 29.494 19.6416 29.1263 18.7965 27.8275C17.9515 26.5287 18.3193 24.7907 19.6182 23.9458L28.9703 17.861C29.9009 17.2557 31.1002 17.2557 32.0305 17.861L41.3826 23.9458C42.6813 24.7908 43.0491 26.5288 42.2043 27.8275C41.6661 28.6537 40.7668 29.1033 39.8496 29.1033Z" fill="#ED5303"/>
<path d="M41.3821 23.9456L32.03 17.8607C31.5649 17.5582 31.0323 17.4068 30.4998 17.4068V23.5597L38.3217 28.6491C38.7942 28.9566 39.3246 29.1034 39.8492 29.1034C40.7664 29.1034 41.6657 28.654 42.2035 27.8276C43.0488 26.5287 42.681 24.7907 41.3821 23.9456Z" fill="#ED5303"/>
</g>
<defs>
<clipPath id="clip0_178_3896">
<rect width="60" height="60" fill="white" transform="translate(0.5 0.5)"/>
</clipPath>
</defs>
</svg>
