<svg width="122" height="87" viewBox="0 0 122 87" fill="none" xmlns="http://www.w3.org/2000/svg">
<rect x="2.5" y="2.58313" width="117" height="82.4169" stroke="#FF6600" stroke-width="4"/>
<path d="M57 29.6665C57.5523 29.6665 58 29.0322 58 28.2498C58 27.4674 57.5523 26.8331 57 26.8331C56.4477 26.8331 56 27.4674 56 28.2498C56 29.0322 56.4477 29.6665 57 29.6665Z" fill="#FF6600"/>
<path d="M61 29.6665C61.5523 29.6665 62 29.0322 62 28.2498C62 27.4674 61.5523 26.8331 61 26.8331C60.4477 26.8331 60 27.4674 60 28.2498C60 29.0322 60.4477 29.6665 61 29.6665Z" fill="#FF6600"/>
<path d="M66 28.2498C66 29.0322 65.5523 29.6665 65 29.6665C64.4477 29.6665 64 29.0322 64 28.2498C64 27.4674 64.4477 26.8331 65 26.8331C65.5523 26.8331 66 27.4674 66 28.2498Z" fill="#FF6600"/>
<path fill-rule="evenodd" clip-rule="evenodd" d="M55.75 16.9164C55.75 12.8088 58.1005 9.47894 61 9.47894C63.4453 9.47894 65.5018 11.8482 66.0846 15.0563C66.1879 15.6246 66.5968 15.9667 66.9979 15.8204C67.3991 15.6741 67.6405 15.0949 67.5373 14.5266C66.788 10.4025 64.1463 7.35394 61 7.35394C57.2721 7.35394 54.25 11.6352 54.25 16.9164V18.762C54.0232 18.7846 53.8094 18.814 53.6083 18.8523C52.7081 19.0238 51.9503 19.3906 51.3484 20.2432C50.7464 21.096 50.4875 22.1696 50.3665 23.4447C50.25 24.673 50.25 26.2346 50.25 28.172V28.3275C50.25 30.265 50.25 31.8266 50.3665 33.0548C50.4875 34.33 50.7464 35.4035 51.3484 36.2562C51.9503 37.109 52.7081 37.4758 53.6083 37.6472C54.4752 37.8123 55.5775 37.8123 56.9451 37.8123H65.0549C66.4225 37.8123 67.5248 37.8123 68.3918 37.6472C69.2919 37.4758 70.0497 37.109 70.6517 36.2562C71.2536 35.4035 71.5125 34.33 71.6335 33.0548C71.75 31.8266 71.75 30.265 71.75 28.3275V28.172C71.75 26.2346 71.75 24.673 71.6335 23.4447C71.5125 22.1696 71.2536 21.096 70.6517 20.2432C70.0497 19.3906 69.2919 19.0238 68.3918 18.8523C67.5248 18.6872 66.4225 18.6872 65.0549 18.6873H56.9451C56.5216 18.6873 56.1235 18.6873 55.75 18.6921V16.9164ZM53.8081 20.9583C53.0744 21.0982 52.6858 21.3537 52.409 21.7459C52.1323 22.138 51.9518 22.6884 51.8532 23.7279C51.7516 24.7981 51.75 26.2163 51.75 28.2498C51.75 30.2833 51.7516 31.7015 51.8532 32.7716C51.9518 33.8112 52.1323 34.3616 52.409 34.7537C52.6858 35.1458 53.0744 35.4014 53.8081 35.5412C54.5635 35.685 55.5646 35.6873 57 35.6873H65C66.4354 35.6873 67.4365 35.685 68.1919 35.5412C68.9257 35.4014 69.3142 35.1458 69.591 34.7537C69.8678 34.3616 70.0482 33.8112 70.1469 32.7716C70.2484 31.7015 70.25 30.2833 70.25 28.2498C70.25 26.2163 70.2484 24.7981 70.1469 23.7279C70.0482 22.6884 69.8678 22.138 69.591 21.7459C69.3142 21.3537 68.9257 21.0982 68.1919 20.9583C67.4365 20.8145 66.4354 20.8123 65 20.8123H57C55.5646 20.8123 54.5635 20.8145 53.8081 20.9583Z" fill="#FF6600"/>
<path d="M20.6924 72.5831V71.7286L21.4492 71.5822V66.4796L20.6924 66.3331V65.4738H26.3516V67.422H25.2578L25.1943 66.5724H22.875V68.5304H25.3652V69.629H22.875V71.5822L23.6367 71.7286V72.5831H20.6924ZM29.9355 72.6857C29.457 72.6857 29.0208 72.5962 28.627 72.4171C28.2331 72.2381 27.8929 71.9874 27.6064 71.6652C27.3232 71.3396 27.1051 70.9588 26.9521 70.5226C26.7992 70.0831 26.7227 69.603 26.7227 69.0822V68.9747C26.7227 68.4572 26.7992 67.9803 26.9521 67.5441C27.1051 67.1046 27.3232 66.7221 27.6064 66.3966C27.8896 66.0711 28.2282 65.8188 28.6221 65.6398C29.016 65.4607 29.4521 65.3712 29.9307 65.3712C30.4124 65.3712 30.8519 65.4607 31.249 65.6398C31.6462 65.8188 31.988 66.0711 32.2744 66.3966C32.5609 66.7221 32.7806 67.1046 32.9336 67.5441C33.0898 67.9803 33.168 68.4572 33.168 68.9747V69.0822C33.168 69.603 33.0898 70.0831 32.9336 70.5226C32.7806 70.9588 32.5609 71.3396 32.2744 71.6652C31.988 71.9874 31.6462 72.2381 31.249 72.4171C30.8551 72.5962 30.4173 72.6857 29.9355 72.6857ZM29.9355 71.5773C30.3392 71.5773 30.6745 71.4731 30.9414 71.2648C31.2083 71.0564 31.4085 70.7651 31.542 70.3907C31.6787 70.0164 31.7471 69.5802 31.7471 69.0822V68.965C31.7471 68.4734 31.6787 68.0421 31.542 67.671C31.4053 67.2967 31.2018 67.0053 30.9316 66.797C30.6647 66.5887 30.3311 66.4845 29.9307 66.4845C29.5335 66.4845 29.2031 66.5887 28.9395 66.797C28.6758 67.0021 28.4772 67.2902 28.3438 67.6613C28.2135 68.0323 28.1484 68.4669 28.1484 68.965V69.0822C28.1484 69.5802 28.2135 70.0164 28.3438 70.3907C28.4772 70.7651 28.6758 71.0564 28.9395 71.2648C29.2064 71.4731 29.5384 71.5773 29.9355 71.5773ZM33.7393 72.5831V71.7286L34.4961 71.5822V66.4796L33.7393 66.3331V65.4738H37.1084C37.6553 65.4738 38.124 65.5584 38.5146 65.7277C38.9053 65.8969 39.2048 66.1394 39.4131 66.4552C39.6247 66.771 39.7305 67.1502 39.7305 67.5929C39.7305 68.0096 39.6263 68.3823 39.418 68.7111C39.2096 69.0398 38.9199 69.2986 38.5488 69.4874C38.1777 69.6762 37.7497 69.7723 37.2646 69.7755H35.9219V71.5822L36.6836 71.7286V72.5831H33.7393ZM38.3145 72.5831L37.1182 69.5118L38.4023 69.1945L39.4375 71.587L40.043 71.7286V72.5831H38.3145ZM35.9219 68.6769H37.084C37.4941 68.6769 37.8001 68.5906 38.002 68.4181C38.207 68.2423 38.3096 67.9884 38.3096 67.6564C38.3096 67.3276 38.2087 67.0656 38.0068 66.8702C37.805 66.6717 37.5055 66.5724 37.1084 66.5724H35.9219V68.6769ZM43.0654 72.5831V71.7286L43.832 71.5675V66.4991L43.0654 66.3331V65.4738H43.832H46.1855C46.8203 65.4738 47.3802 65.6235 47.8652 65.923C48.3503 66.2192 48.7279 66.631 48.998 67.1583C49.2715 67.6824 49.4082 68.2846 49.4082 68.965V69.0968C49.4082 69.7706 49.2731 70.3712 49.0029 70.8986C48.736 71.4226 48.3617 71.8344 47.8799 72.1339C47.3981 72.4334 46.8398 72.5831 46.2051 72.5831H43.0654ZM45.2578 71.4943H46.1318C46.5257 71.4943 46.8594 71.3917 47.1328 71.1866C47.4062 70.9783 47.6146 70.6935 47.7578 70.3322C47.9043 69.9708 47.9775 69.559 47.9775 69.0968V68.9601C47.9775 68.4913 47.9043 68.0779 47.7578 67.7198C47.6146 67.3585 47.4062 67.0769 47.1328 66.8751C46.8594 66.67 46.5257 66.5675 46.1318 66.5675H45.2578V71.4943ZM50.0283 72.5831V71.7286L50.7852 71.5822V66.4796L50.0283 66.3331V65.4738H52.9678V66.3331L52.2109 66.4796V71.5822L52.9678 71.7286V72.5831H50.0283ZM53.5146 72.5831V71.7286L54.2715 71.5822V66.4796L53.5146 66.3331V65.4738H54.2715H56.8984C57.4421 65.4738 57.9108 65.5698 58.3047 65.7618C58.6986 65.9506 59.0013 66.2159 59.2129 66.5577C59.4245 66.8963 59.5303 67.2918 59.5303 67.7443C59.5303 68.1967 59.4245 68.5939 59.2129 68.9357C59.0013 69.2742 58.6986 69.5379 58.3047 69.7267C57.9108 69.9122 57.4421 70.005 56.8984 70.005H55.6973V71.5822L56.459 71.7286V72.5831H53.5146ZM55.6973 68.9064H56.8984C57.2956 68.9064 57.5951 68.799 57.7969 68.5841C58.002 68.366 58.1045 68.0893 58.1045 67.754C58.1045 67.4122 58.002 67.1307 57.7969 66.9093C57.5951 66.6847 57.2956 66.5724 56.8984 66.5724H55.6973V68.9064ZM59.9893 72.5831V71.7286L60.7461 71.5822V66.4796L59.9893 66.3331V65.4738H60.7461H62.1719H63.0312V66.3331L62.1719 66.4796V71.4894H64.1787L64.2471 70.4493H65.3359V72.5831H59.9893ZM68.9785 72.6857C68.5 72.6857 68.0638 72.5962 67.6699 72.4171C67.276 72.2381 66.9359 71.9874 66.6494 71.6652C66.3662 71.3396 66.1481 70.9588 65.9951 70.5226C65.8421 70.0831 65.7656 69.603 65.7656 69.0822V68.9747C65.7656 68.4572 65.8421 67.9803 65.9951 67.5441C66.1481 67.1046 66.3662 66.7221 66.6494 66.3966C66.9326 66.0711 67.2712 65.8188 67.665 65.6398C68.0589 65.4607 68.4951 65.3712 68.9736 65.3712C69.4554 65.3712 69.8949 65.4607 70.292 65.6398C70.6891 65.8188 71.0309 66.0711 71.3174 66.3966C71.6038 66.7221 71.8236 67.1046 71.9766 67.5441C72.1328 67.9803 72.2109 68.4572 72.2109 68.9747V69.0822C72.2109 69.603 72.1328 70.0831 71.9766 70.5226C71.8236 70.9588 71.6038 71.3396 71.3174 71.6652C71.0309 71.9874 70.6891 72.2381 70.292 72.4171C69.8981 72.5962 69.4603 72.6857 68.9785 72.6857ZM68.9785 71.5773C69.3822 71.5773 69.7174 71.4731 69.9844 71.2648C70.2513 71.0564 70.4515 70.7651 70.585 70.3907C70.7217 70.0164 70.79 69.5802 70.79 69.0822V68.965C70.79 68.4734 70.7217 68.0421 70.585 67.671C70.4482 67.2967 70.2448 67.0053 69.9746 66.797C69.7077 66.5887 69.374 66.4845 68.9736 66.4845C68.5765 66.4845 68.2461 66.5887 67.9824 66.797C67.7188 67.0021 67.5202 67.2902 67.3867 67.6613C67.2565 68.0323 67.1914 68.4669 67.1914 68.965V69.0822C67.1914 69.5802 67.2565 70.0164 67.3867 70.3907C67.5202 70.7651 67.7188 71.0564 67.9824 71.2648C68.2493 71.4731 68.5814 71.5773 68.9785 71.5773ZM72.7822 72.5831V71.7286L73.5391 71.5822V66.4796L72.7822 66.3331V65.4738H73.5391H75.6484L77.5869 70.4298H77.6162L79.4912 65.4738H82.3623V66.3331L81.6006 66.4796V71.5822L82.3623 71.7286V72.5831H79.418V71.7286L80.2139 71.5822V70.2198L80.2383 67.0118L80.209 67.007L78.085 72.4855H77.0059L74.833 67.0509L74.8037 67.0558L74.8867 70.0734V71.5822L75.7266 71.7286V72.5831H72.7822ZM82.3281 72.5831V71.7286L82.8359 71.6554L85.0967 65.4738H86.5566L88.8027 71.6554L89.3105 71.7286V72.5831H86.8887V71.7286L87.3818 71.6407L87.0693 70.6642H84.5693L84.2568 71.6407L84.75 71.7286V72.5831H82.3281ZM84.9062 69.6144H86.7324L85.9023 67.1779L85.834 66.963H85.8047L85.7314 67.1925L84.9062 69.6144ZM90.6875 72.5831V71.7286L91.4492 71.5822V66.5724H90.1553L90.0771 67.422H88.998V65.4738H95.3408V67.422H94.2568L94.1787 66.5724H92.875V71.5822L93.6416 71.7286V72.5831H90.6875ZM98.6611 72.6857C98.137 72.6857 97.6602 72.6271 97.2305 72.5099C96.8008 72.3927 96.3776 72.1892 95.9609 71.8995V70.1808H97.0645L97.2158 71.1915C97.3623 71.3152 97.5641 71.4161 97.8213 71.4943C98.0785 71.5691 98.3584 71.6066 98.6611 71.6066C98.9183 71.6066 99.1348 71.5708 99.3105 71.4991C99.4896 71.4275 99.6247 71.3266 99.7158 71.1964C99.8102 71.0629 99.8574 70.9067 99.8574 70.7277C99.8574 70.5584 99.8151 70.4087 99.7305 70.2784C99.6491 70.145 99.5124 70.0245 99.3203 69.9171C99.1315 69.8064 98.8743 69.7006 98.5488 69.5997C97.9857 69.4337 97.5186 69.2531 97.1475 69.0577C96.7796 68.8592 96.5029 68.6232 96.3174 68.3497C96.1351 68.073 96.0439 67.741 96.0439 67.3536C96.0439 66.9695 96.1497 66.631 96.3613 66.338C96.5762 66.0418 96.8724 65.809 97.25 65.6398C97.6276 65.4705 98.0638 65.3826 98.5586 65.3761C99.1055 65.3696 99.5889 65.4347 100.009 65.5714C100.432 65.7081 100.797 65.8986 101.103 66.1427V67.7443H100.033L99.8477 66.7677C99.724 66.6896 99.5563 66.6212 99.3447 66.5626C99.1364 66.504 98.8988 66.4747 98.6318 66.4747C98.404 66.4747 98.2021 66.5089 98.0264 66.5773C97.8538 66.6456 97.7171 66.7449 97.6162 66.8751C97.5153 67.0053 97.4648 67.1632 97.4648 67.3488C97.4648 67.5083 97.5088 67.6482 97.5967 67.7687C97.6846 67.8859 97.8311 67.9982 98.0361 68.1056C98.2445 68.2098 98.5309 68.3221 98.8955 68.4425C99.68 68.6606 100.274 68.9487 100.678 69.3068C101.085 69.6648 101.288 70.1352 101.288 70.7179C101.288 71.1215 101.179 71.4715 100.961 71.7677C100.743 72.0607 100.437 72.2869 100.043 72.4464C99.6491 72.6059 99.1885 72.6857 98.6611 72.6857Z" fill="#FF6600"/>
</svg>
