<svg width="110" height="87" viewBox="0 0 110 87" fill="none" xmlns="http://www.w3.org/2000/svg">
<rect x="2.5" y="2.58313" width="105" height="82.4169" stroke="#FF6600" stroke-width="4"/>
<path d="M51 29.6665C51.5523 29.6665 52 29.0322 52 28.2498C52 27.4674 51.5523 26.8331 51 26.8331C50.4477 26.8331 50 27.4674 50 28.2498C50 29.0322 50.4477 29.6665 51 29.6665Z" fill="#FF6600"/>
<path d="M55 29.6665C55.5523 29.6665 56 29.0322 56 28.2498C56 27.4674 55.5523 26.8331 55 26.8331C54.4477 26.8331 54 27.4674 54 28.2498C54 29.0322 54.4477 29.6665 55 29.6665Z" fill="#FF6600"/>
<path d="M60 28.2498C60 29.0322 59.5523 29.6665 59 29.6665C58.4477 29.6665 58 29.0322 58 28.2498C58 27.4674 58.4477 26.8331 59 26.8331C59.5523 26.8331 60 27.4674 60 28.2498Z" fill="#FF6600"/>
<path fill-rule="evenodd" clip-rule="evenodd" d="M49.75 16.9164C49.75 12.8088 52.1005 9.47894 55 9.47894C57.4453 9.47894 59.5018 11.8482 60.0846 15.0563C60.1879 15.6246 60.5968 15.9667 60.9979 15.8204C61.3991 15.6741 61.6405 15.0949 61.5373 14.5266C60.788 10.4025 58.1463 7.35394 55 7.35394C51.2721 7.35394 48.25 11.6352 48.25 16.9164V18.762C48.0232 18.7846 47.8094 18.814 47.6083 18.8523C46.7081 19.0238 45.9503 19.3906 45.3484 20.2432C44.7464 21.096 44.4875 22.1696 44.3665 23.4447C44.25 24.673 44.25 26.2346 44.25 28.172V28.3275C44.25 30.265 44.25 31.8266 44.3665 33.0548C44.4875 34.33 44.7464 35.4035 45.3484 36.2562C45.9503 37.109 46.7081 37.4758 47.6083 37.6472C48.4752 37.8123 49.5775 37.8123 50.9451 37.8123H59.0549C60.4225 37.8123 61.5248 37.8123 62.3918 37.6472C63.2919 37.4758 64.0497 37.109 64.6517 36.2562C65.2536 35.4035 65.5125 34.33 65.6335 33.0548C65.75 31.8266 65.75 30.265 65.75 28.3275V28.172C65.75 26.2346 65.75 24.673 65.6335 23.4447C65.5125 22.1696 65.2536 21.096 64.6517 20.2432C64.0497 19.3906 63.2919 19.0238 62.3918 18.8523C61.5248 18.6872 60.4225 18.6872 59.0549 18.6873H50.9451C50.5216 18.6873 50.1235 18.6873 49.75 18.6921V16.9164ZM47.8081 20.9583C47.0744 21.0982 46.6858 21.3537 46.409 21.7459C46.1323 22.138 45.9518 22.6884 45.8532 23.7279C45.7516 24.7981 45.75 26.2163 45.75 28.2498C45.75 30.2833 45.7516 31.7015 45.8532 32.7716C45.9518 33.8112 46.1323 34.3616 46.409 34.7537C46.6858 35.1458 47.0744 35.4014 47.8081 35.5412C48.5635 35.685 49.5646 35.6873 51 35.6873H59C60.4354 35.6873 61.4365 35.685 62.1919 35.5412C62.9257 35.4014 63.3142 35.1458 63.591 34.7537C63.8678 34.3616 64.0482 33.8112 64.1469 32.7716C64.2484 31.7015 64.25 30.2833 64.25 28.2498C64.25 26.2163 64.2484 24.7981 64.1469 23.7279C64.0482 22.6884 63.8678 22.138 63.591 21.7459C63.3142 21.3537 62.9257 21.0982 62.1919 20.9583C61.4365 20.8145 60.4354 20.8123 59 20.8123H51C49.5646 20.8123 48.5635 20.8145 47.8081 20.9583Z" fill="#FF6600"/>
<path d="M19.8096 72.5831V71.7286L20.5664 71.5822V66.4796L19.8096 66.3331V65.4738H25.4688V67.422H24.375L24.3115 66.5724H21.9922V68.5304H24.4824V69.629H21.9922V71.5822L22.7539 71.7286V72.5831H19.8096ZM29.0527 72.6857C28.5742 72.6857 28.138 72.5962 27.7441 72.4171C27.3503 72.2381 27.0101 71.9874 26.7236 71.6652C26.4404 71.3396 26.2223 70.9588 26.0693 70.5226C25.9163 70.0831 25.8398 69.603 25.8398 69.0822V68.9747C25.8398 68.4572 25.9163 67.9803 26.0693 67.5441C26.2223 67.1046 26.4404 66.7221 26.7236 66.3966C27.0068 66.0711 27.3454 65.8188 27.7393 65.6398C28.1331 65.4607 28.5693 65.3712 29.0479 65.3712C29.5296 65.3712 29.9691 65.4607 30.3662 65.6398C30.7633 65.8188 31.1051 66.0711 31.3916 66.3966C31.6781 66.7221 31.8978 67.1046 32.0508 67.5441C32.207 67.9803 32.2852 68.4572 32.2852 68.9747V69.0822C32.2852 69.603 32.207 70.0831 32.0508 70.5226C31.8978 70.9588 31.6781 71.3396 31.3916 71.6652C31.1051 71.9874 30.7633 72.2381 30.3662 72.4171C29.9723 72.5962 29.5345 72.6857 29.0527 72.6857ZM29.0527 71.5773C29.4564 71.5773 29.7917 71.4731 30.0586 71.2648C30.3255 71.0564 30.5257 70.7651 30.6592 70.3907C30.7959 70.0164 30.8643 69.5802 30.8643 69.0822V68.965C30.8643 68.4734 30.7959 68.0421 30.6592 67.671C30.5225 67.2967 30.319 67.0053 30.0488 66.797C29.7819 66.5887 29.4482 66.4845 29.0479 66.4845C28.6507 66.4845 28.3203 66.5887 28.0566 66.797C27.793 67.0021 27.5944 67.2902 27.4609 67.6613C27.3307 68.0323 27.2656 68.4669 27.2656 68.965V69.0822C27.2656 69.5802 27.3307 70.0164 27.4609 70.3907C27.5944 70.7651 27.793 71.0564 28.0566 71.2648C28.3236 71.4731 28.6556 71.5773 29.0527 71.5773ZM32.8564 72.5831V71.7286L33.6133 71.5822V66.4796L32.8564 66.3331V65.4738H36.2256C36.7725 65.4738 37.2412 65.5584 37.6318 65.7277C38.0225 65.8969 38.3219 66.1394 38.5303 66.4552C38.7419 66.771 38.8477 67.1502 38.8477 67.5929C38.8477 68.0096 38.7435 68.3823 38.5352 68.7111C38.3268 69.0398 38.0371 69.2986 37.666 69.4874C37.2949 69.6762 36.8669 69.7723 36.3818 69.7755H35.0391V71.5822L35.8008 71.7286V72.5831H32.8564ZM37.4316 72.5831L36.2354 69.5118L37.5195 69.1945L38.5547 71.587L39.1602 71.7286V72.5831H37.4316ZM35.0391 68.6769H36.2012C36.6113 68.6769 36.9173 68.5906 37.1191 68.4181C37.3242 68.2423 37.4268 67.9884 37.4268 67.6564C37.4268 67.3276 37.3258 67.0656 37.124 66.8702C36.9222 66.6717 36.6227 66.5724 36.2256 66.5724H35.0391V68.6769ZM43.8184 72.5831V71.7286L44.5801 71.5822V66.5724H43.2861L43.208 67.422H42.1289V65.4738H48.4717V67.422H47.3877L47.3096 66.5724H46.0059V71.5822L46.7725 71.7286V72.5831H43.8184ZM48.9697 72.5831V71.7286L49.7266 71.5822V66.4796L48.9697 66.3331V65.4738H54.4873V67.3927H53.3936L53.3301 66.5724H51.1523V68.3595H53.5596V69.4581H51.1523V71.4894H53.4473L53.5107 70.6398H54.5947V72.5831H48.9697ZM55.3564 72.5831V71.7286L56.1133 71.5822V66.4796L55.3564 66.3331V65.4738H56.1133H57.5586L60.6543 70.4054L60.6836 70.4005V66.4796L59.7754 66.3331V65.4738H61.958H62.7197V66.3331L61.958 66.4796V72.5831H60.5811L57.417 67.7003L57.3877 67.7052V71.5822L58.3008 71.7286V72.5831H55.3564ZM62.6465 72.5831V71.7286L63.1543 71.6554L65.415 65.4738H66.875L69.1211 71.6554L69.6289 71.7286V72.5831H67.207V71.7286L67.7002 71.6407L67.3877 70.6642H64.8877L64.5752 71.6407L65.0684 71.7286V72.5831H62.6465ZM65.2246 69.6144H67.0508L66.2207 67.1779L66.1523 66.963H66.123L66.0498 67.1925L65.2246 69.6144ZM70.1025 72.5831V71.7286L70.8594 71.5822V66.4796L70.1025 66.3331V65.4738H70.8594H72.3047L75.4004 70.4054L75.4297 70.4005V66.4796L74.5215 66.3331V65.4738H76.7041H77.4658V66.3331L76.7041 66.4796V72.5831H75.3271L72.1631 67.7003L72.1338 67.7052V71.5822L73.0469 71.7286V72.5831H70.1025ZM79.5703 72.5831V71.7286L80.332 71.5822V66.5724H79.0381L78.96 67.422H77.8809V65.4738H84.2236V67.422H83.1396L83.0615 66.5724H81.7578V71.5822L82.5244 71.7286V72.5831H79.5703ZM87.5439 72.6857C87.0199 72.6857 86.543 72.6271 86.1133 72.5099C85.6836 72.3927 85.2604 72.1892 84.8438 71.8995V70.1808H85.9473L86.0986 71.1915C86.2451 71.3152 86.4469 71.4161 86.7041 71.4943C86.9613 71.5691 87.2412 71.6066 87.5439 71.6066C87.8011 71.6066 88.0176 71.5708 88.1934 71.4991C88.3724 71.4275 88.5075 71.3266 88.5986 71.1964C88.693 71.0629 88.7402 70.9067 88.7402 70.7277C88.7402 70.5584 88.6979 70.4087 88.6133 70.2784C88.5319 70.145 88.3952 70.0245 88.2031 69.9171C88.0143 69.8064 87.7572 69.7006 87.4316 69.5997C86.8685 69.4337 86.4014 69.2531 86.0303 69.0577C85.6624 68.8592 85.3857 68.6232 85.2002 68.3497C85.0179 68.073 84.9268 67.741 84.9268 67.3536C84.9268 66.9695 85.0326 66.631 85.2441 66.338C85.459 66.0418 85.7552 65.809 86.1328 65.6398C86.5104 65.4705 86.9466 65.3826 87.4414 65.3761C87.9883 65.3696 88.4717 65.4347 88.8916 65.5714C89.3148 65.7081 89.6794 65.8986 89.9854 66.1427V67.7443H88.916L88.7305 66.7677C88.6068 66.6896 88.4391 66.6212 88.2275 66.5626C88.0192 66.504 87.7816 66.4747 87.5146 66.4747C87.2868 66.4747 87.085 66.5089 86.9092 66.5773C86.7367 66.6456 86.5999 66.7449 86.499 66.8751C86.3981 67.0053 86.3477 67.1632 86.3477 67.3488C86.3477 67.5083 86.3916 67.6482 86.4795 67.7687C86.5674 67.8859 86.7139 67.9982 86.9189 68.1056C87.1273 68.2098 87.4137 68.3221 87.7783 68.4425C88.5628 68.6606 89.1569 68.9487 89.5605 69.3068C89.9674 69.6648 90.1709 70.1352 90.1709 70.7179C90.1709 71.1215 90.0618 71.4715 89.8438 71.7677C89.6257 72.0607 89.3197 72.2869 88.9258 72.4464C88.5319 72.6059 88.0713 72.6857 87.5439 72.6857Z" fill="#FF6600"/>
</svg>
