<svg width="110" height="87" viewBox="0 0 110 87" fill="none" xmlns="http://www.w3.org/2000/svg">
<rect x="2.5" y="2.58313" width="105" height="82.4169" stroke="#FF6600" stroke-width="4"/>
<path d="M51 29.6665C51.5523 29.6665 52 29.0322 52 28.2498C52 27.4674 51.5523 26.8331 51 26.8331C50.4477 26.8331 50 27.4674 50 28.2498C50 29.0322 50.4477 29.6665 51 29.6665Z" fill="#FF6600"/>
<path d="M55 29.6665C55.5523 29.6665 56 29.0322 56 28.2498C56 27.4674 55.5523 26.8331 55 26.8331C54.4477 26.8331 54 27.4674 54 28.2498C54 29.0322 54.4477 29.6665 55 29.6665Z" fill="#FF6600"/>
<path d="M60 28.2498C60 29.0322 59.5523 29.6665 59 29.6665C58.4477 29.6665 58 29.0322 58 28.2498C58 27.4674 58.4477 26.8331 59 26.8331C59.5523 26.8331 60 27.4674 60 28.2498Z" fill="#FF6600"/>
<path fill-rule="evenodd" clip-rule="evenodd" d="M49.75 16.9164C49.75 12.8088 52.1005 9.47894 55 9.47894C57.4453 9.47894 59.5018 11.8482 60.0846 15.0563C60.1879 15.6246 60.5968 15.9667 60.9979 15.8204C61.3991 15.6741 61.6405 15.0949 61.5373 14.5266C60.788 10.4025 58.1463 7.35394 55 7.35394C51.2721 7.35394 48.25 11.6352 48.25 16.9164V18.762C48.0232 18.7846 47.8094 18.814 47.6083 18.8523C46.7081 19.0238 45.9503 19.3906 45.3484 20.2432C44.7464 21.096 44.4875 22.1696 44.3665 23.4447C44.25 24.673 44.25 26.2346 44.25 28.172V28.3275C44.25 30.265 44.25 31.8266 44.3665 33.0548C44.4875 34.33 44.7464 35.4035 45.3484 36.2562C45.9503 37.109 46.7081 37.4758 47.6083 37.6472C48.4752 37.8123 49.5775 37.8123 50.9451 37.8123H59.0549C60.4225 37.8123 61.5248 37.8123 62.3918 37.6472C63.2919 37.4758 64.0497 37.109 64.6517 36.2562C65.2536 35.4035 65.5125 34.33 65.6335 33.0548C65.75 31.8266 65.75 30.265 65.75 28.3275V28.172C65.75 26.2346 65.75 24.673 65.6335 23.4447C65.5125 22.1696 65.2536 21.096 64.6517 20.2432C64.0497 19.3906 63.2919 19.0238 62.3918 18.8523C61.5248 18.6872 60.4225 18.6872 59.0549 18.6873H50.9451C50.5216 18.6873 50.1235 18.6873 49.75 18.6921V16.9164ZM47.8081 20.9583C47.0744 21.0982 46.6858 21.3537 46.409 21.7459C46.1323 22.138 45.9518 22.6884 45.8532 23.7279C45.7516 24.7981 45.75 26.2163 45.75 28.2498C45.75 30.2833 45.7516 31.7015 45.8532 32.7716C45.9518 33.8112 46.1323 34.3616 46.409 34.7537C46.6858 35.1458 47.0744 35.4014 47.8081 35.5412C48.5635 35.685 49.5646 35.6873 51 35.6873H59C60.4354 35.6873 61.4365 35.685 62.1919 35.5412C62.9257 35.4014 63.3142 35.1458 63.591 34.7537C63.8678 34.3616 64.0482 33.8112 64.1469 32.7716C64.2484 31.7015 64.25 30.2833 64.25 28.2498C64.25 26.2163 64.2484 24.7981 64.1469 23.7279C64.0482 22.6884 63.8678 22.138 63.591 21.7459C63.3142 21.3537 62.9257 21.0982 62.1919 20.9583C61.4365 20.8145 60.4354 20.8123 59 20.8123H51C49.5646 20.8123 48.5635 20.8145 47.8081 20.9583Z" fill="#FF6600"/>
<path d="M17.1436 62.5831V61.7286L17.9004 61.5822V56.4796L17.1436 56.3331V55.4738H22.8027V57.422H21.709L21.6455 56.5724H19.3262V58.5304H21.8164V59.629H19.3262V61.5822L20.0879 61.7286V62.5831H17.1436ZM26.3867 62.6857C25.9082 62.6857 25.472 62.5962 25.0781 62.4171C24.6842 62.2381 24.3441 61.9874 24.0576 61.6652C23.7744 61.3396 23.5563 60.9588 23.4033 60.5226C23.2503 60.0831 23.1738 59.603 23.1738 59.0822V58.9747C23.1738 58.4572 23.2503 57.9803 23.4033 57.5441C23.5563 57.1046 23.7744 56.7221 24.0576 56.3966C24.3408 56.0711 24.6794 55.8188 25.0732 55.6398C25.4671 55.4607 25.9033 55.3712 26.3818 55.3712C26.8636 55.3712 27.3031 55.4607 27.7002 55.6398C28.0973 55.8188 28.4391 56.0711 28.7256 56.3966C29.012 56.7221 29.2318 57.1046 29.3848 57.5441C29.541 57.9803 29.6191 58.4572 29.6191 58.9747V59.0822C29.6191 59.603 29.541 60.0831 29.3848 60.5226C29.2318 60.9588 29.012 61.3396 28.7256 61.6652C28.4391 61.9874 28.0973 62.2381 27.7002 62.4171C27.3063 62.5962 26.8685 62.6857 26.3867 62.6857ZM26.3867 61.5773C26.7904 61.5773 27.1257 61.4731 27.3926 61.2648C27.6595 61.0564 27.8597 60.7651 27.9932 60.3907C28.1299 60.0164 28.1982 59.5802 28.1982 59.0822V58.965C28.1982 58.4734 28.1299 58.0421 27.9932 57.671C27.8564 57.2967 27.653 57.0053 27.3828 56.797C27.1159 56.5887 26.7822 56.4845 26.3818 56.4845C25.9847 56.4845 25.6543 56.5887 25.3906 56.797C25.127 57.0021 24.9284 57.2902 24.7949 57.6613C24.6647 58.0323 24.5996 58.4669 24.5996 58.965V59.0822C24.5996 59.5802 24.6647 60.0164 24.7949 60.3907C24.9284 60.7651 25.127 61.0564 25.3906 61.2648C25.6576 61.4731 25.9896 61.5773 26.3867 61.5773ZM30.1904 62.5831V61.7286L30.9473 61.5822V56.4796L30.1904 56.3331V55.4738H33.5596C34.1064 55.4738 34.5752 55.5584 34.9658 55.7277C35.3564 55.8969 35.6559 56.1394 35.8643 56.4552C36.0758 56.771 36.1816 57.1502 36.1816 57.5929C36.1816 58.0096 36.0775 58.3823 35.8691 58.7111C35.6608 59.0398 35.3711 59.2986 35 59.4874C34.6289 59.6762 34.2008 59.7723 33.7158 59.7755H32.373V61.5822L33.1348 61.7286V62.5831H30.1904ZM34.7656 62.5831L33.5693 59.5118L34.8535 59.1945L35.8887 61.587L36.4941 61.7286V62.5831H34.7656ZM32.373 58.6769H33.5352C33.9453 58.6769 34.2513 58.5906 34.4531 58.4181C34.6582 58.2423 34.7607 57.9884 34.7607 57.6564C34.7607 57.3276 34.6598 57.0656 34.458 56.8702C34.2562 56.6717 33.9567 56.5724 33.5596 56.5724H32.373V58.6769ZM39.5166 62.5831V61.7286L40.2734 61.5822V56.4796L39.5166 56.3331V55.4738H42.8857C43.4326 55.4738 43.9014 55.5584 44.292 55.7277C44.6826 55.8969 44.9821 56.1394 45.1904 56.4552C45.402 56.771 45.5078 57.1502 45.5078 57.5929C45.5078 58.0096 45.4036 58.3823 45.1953 58.7111C44.987 59.0398 44.6973 59.2986 44.3262 59.4874C43.9551 59.6762 43.527 59.7723 43.042 59.7755H41.6992V61.5822L42.4609 61.7286V62.5831H39.5166ZM44.0918 62.5831L42.8955 59.5118L44.1797 59.1945L45.2148 61.587L45.8203 61.7286V62.5831H44.0918ZM41.6992 58.6769H42.8613C43.2715 58.6769 43.5775 58.5906 43.7793 58.4181C43.9844 58.2423 44.0869 57.9884 44.0869 57.6564C44.0869 57.3276 43.986 57.0656 43.7842 56.8702C43.5824 56.6717 43.2829 56.5724 42.8857 56.5724H41.6992V58.6769ZM48.6621 62.5831L47.0117 56.4064L46.2842 56.3331V55.4738H49.1455V56.3331L48.3789 56.4454L49.2139 59.9025L49.3652 60.5372H49.3945L49.5752 59.9025L50.9814 55.4738H52.0312L53.4912 60.0245L53.6621 60.5861H53.6914L53.8379 60.0245L54.7021 56.4454L53.8916 56.3331V55.4738H56.6992V56.3331L56.0205 56.4064L54.3506 62.5831H53.0615L51.7139 58.4279L51.543 57.8419H51.5137L51.3232 58.4474L49.9609 62.5831H48.6621ZM56.2305 62.5831V61.7286L56.7383 61.6554L58.999 55.4738H60.459L62.7051 61.6554L63.2129 61.7286V62.5831H60.791V61.7286L61.2842 61.6407L60.9717 60.6642H58.4717L58.1592 61.6407L58.6523 61.7286V62.5831H56.2305ZM58.8086 59.6144H60.6348L59.8047 57.1779L59.7363 56.963H59.707L59.6338 57.1925L58.8086 59.6144ZM63.6865 62.5831V61.7286L64.4434 61.5822V56.4796L63.6865 56.3331V55.4738H64.4434H65.8887L68.9844 60.4054L69.0137 60.4005V56.4796L68.1055 56.3331V55.4738H70.2881H71.0498V56.3331L70.2881 56.4796V62.5831H68.9111L65.7471 57.7003L65.7178 57.7052V61.5822L66.6309 61.7286V62.5831H63.6865ZM71.5186 62.5831V61.7286L72.2852 61.5675V56.4991L71.5186 56.3331V55.4738H72.2852H74.6387C75.2734 55.4738 75.8333 55.6235 76.3184 55.923C76.8034 56.2192 77.181 56.631 77.4512 57.1583C77.7246 57.6824 77.8613 58.2846 77.8613 58.965V59.0968C77.8613 59.7706 77.7262 60.3712 77.4561 60.8986C77.1891 61.4226 76.8148 61.8344 76.333 62.1339C75.8512 62.4334 75.293 62.5831 74.6582 62.5831H71.5186ZM73.7109 61.4943H74.585C74.9788 61.4943 75.3125 61.3917 75.5859 61.1866C75.8594 60.9783 76.0677 60.6935 76.2109 60.3322C76.3574 59.9708 76.4307 59.559 76.4307 59.0968V58.9601C76.4307 58.4913 76.3574 58.0779 76.2109 57.7198C76.0677 57.3585 75.8594 57.0769 75.5859 56.8751C75.3125 56.67 74.9788 56.5675 74.585 56.5675H73.7109V61.4943ZM78.1152 62.5831V61.7286L78.623 61.6554L80.8838 55.4738H82.3438L84.5898 61.6554L85.0977 61.7286V62.5831H82.6758V61.7286L83.1689 61.6407L82.8564 60.6642H80.3564L80.0439 61.6407L80.5371 61.7286V62.5831H78.1152ZM80.6934 59.6144H82.5195L81.6895 57.1779L81.6211 56.963H81.5918L81.5186 57.1925L80.6934 59.6144ZM85.5713 62.5831V61.7286L86.3281 61.5822V56.4796L85.5713 56.3331V55.4738H86.3281H87.7734L90.8691 60.4054L90.8984 60.4005V56.4796L89.9902 56.3331V55.4738H92.1729H92.9346V56.3331L92.1729 56.4796V62.5831H90.7959L87.6318 57.7003L87.6025 57.7052V61.5822L88.5156 61.7286V62.5831H85.5713ZM29.6484 75.5831V74.7286L30.415 74.5675V69.4991L29.6484 69.3331V68.4738H30.415H32.7686C33.4033 68.4738 33.9632 68.6235 34.4482 68.923C34.9333 69.2192 35.3109 69.631 35.5811 70.1583C35.8545 70.6824 35.9912 71.2846 35.9912 71.965V72.0968C35.9912 72.7706 35.8561 73.3712 35.5859 73.8986C35.319 74.4226 34.9447 74.8344 34.4629 75.1339C33.9811 75.4334 33.4229 75.5831 32.7881 75.5831H29.6484ZM31.8408 74.4943H32.7148C33.1087 74.4943 33.4424 74.3917 33.7158 74.1866C33.9893 73.9783 34.1976 73.6935 34.3408 73.3322C34.4873 72.9708 34.5605 72.559 34.5605 72.0968V71.9601C34.5605 71.4913 34.4873 71.0779 34.3408 70.7198C34.1976 70.3585 33.9893 70.0769 33.7158 69.8751C33.4424 69.67 33.1087 69.5675 32.7148 69.5675H31.8408V74.4943ZM36.6113 75.5831V74.7286L37.3682 74.5822V69.4796L36.6113 69.3331V68.4738H39.5508V69.3331L38.7939 69.4796V74.5822L39.5508 74.7286V75.5831H36.6113ZM39.5557 75.5831V74.7286L40.0635 74.6554L42.3242 68.4738H43.7842L46.0303 74.6554L46.5381 74.7286V75.5831H44.1162V74.7286L44.6094 74.6407L44.2969 73.6642H41.7969L41.4844 74.6407L41.9775 74.7286V75.5831H39.5557ZM42.1338 72.6144H43.96L43.1299 70.1779L43.0615 69.963H43.0322L42.959 70.1925L42.1338 72.6144ZM49.9121 75.6857C49.388 75.6857 48.9111 75.6271 48.4814 75.5099C48.0518 75.3927 47.6286 75.1892 47.2119 74.8995V73.1808H48.3154L48.4668 74.1915C48.6133 74.3152 48.8151 74.4161 49.0723 74.4943C49.3294 74.5691 49.6094 74.6066 49.9121 74.6066C50.1693 74.6066 50.3857 74.5708 50.5615 74.4991C50.7406 74.4275 50.8757 74.3266 50.9668 74.1964C51.0612 74.0629 51.1084 73.9067 51.1084 73.7277C51.1084 73.5584 51.0661 73.4087 50.9814 73.2784C50.9001 73.145 50.7633 73.0245 50.5713 72.9171C50.3825 72.8064 50.1253 72.7006 49.7998 72.5997C49.2367 72.4337 48.7695 72.2531 48.3984 72.0577C48.0306 71.8592 47.7539 71.6232 47.5684 71.3497C47.3861 71.073 47.2949 70.741 47.2949 70.3536C47.2949 69.9695 47.4007 69.631 47.6123 69.338C47.8271 69.0418 48.1234 68.809 48.501 68.6398C48.8786 68.4705 49.3148 68.3826 49.8096 68.3761C50.3564 68.3696 50.8398 68.4347 51.2598 68.5714C51.6829 68.7081 52.0475 68.8986 52.3535 69.1427V70.7443H51.2842L51.0986 69.7677C50.9749 69.6896 50.8073 69.6212 50.5957 69.5626C50.3874 69.504 50.1497 69.4747 49.8828 69.4747C49.6549 69.4747 49.4531 69.5089 49.2773 69.5773C49.1048 69.6456 48.9681 69.7449 48.8672 69.8751C48.7663 70.0053 48.7158 70.1632 48.7158 70.3488C48.7158 70.5083 48.7598 70.6482 48.8477 70.7687C48.9355 70.8859 49.082 70.9982 49.2871 71.1056C49.4954 71.2098 49.7819 71.3221 50.1465 71.4425C50.931 71.6606 51.5251 71.9487 51.9287 72.3068C52.3356 72.6648 52.5391 73.1352 52.5391 73.7179C52.5391 74.1215 52.43 74.4715 52.2119 74.7677C51.9938 75.0607 51.6878 75.2869 51.2939 75.4464C50.9001 75.6059 50.4395 75.6857 49.9121 75.6857ZM53.1055 75.5831V74.7286L53.8623 74.5822V69.4796L53.1055 69.3331V68.4738H53.8623H56.4893C57.0329 68.4738 57.5016 68.5698 57.8955 68.7618C58.2894 68.9506 58.5921 69.2159 58.8037 69.5577C59.0153 69.8963 59.1211 70.2918 59.1211 70.7443C59.1211 71.1967 59.0153 71.5939 58.8037 71.9357C58.5921 72.2742 58.2894 72.5379 57.8955 72.7267C57.5016 72.9122 57.0329 73.005 56.4893 73.005H55.2881V74.5822L56.0498 74.7286V75.5831H53.1055ZM55.2881 71.9064H56.4893C56.8864 71.9064 57.1859 71.799 57.3877 71.5841C57.5928 71.366 57.6953 71.0893 57.6953 70.754C57.6953 70.4122 57.5928 70.1307 57.3877 69.9093C57.1859 69.6847 56.8864 69.5724 56.4893 69.5724H55.2881V71.9064ZM62.8369 75.6857C62.3584 75.6857 61.9222 75.5962 61.5283 75.4171C61.1344 75.2381 60.7943 74.9874 60.5078 74.6652C60.2246 74.3396 60.0065 73.9588 59.8535 73.5226C59.7005 73.0831 59.624 72.603 59.624 72.0822V71.9747C59.624 71.4572 59.7005 70.9803 59.8535 70.5441C60.0065 70.1046 60.2246 69.7221 60.5078 69.3966C60.791 69.0711 61.1296 68.8188 61.5234 68.6398C61.9173 68.4607 62.3535 68.3712 62.832 68.3712C63.3138 68.3712 63.7533 68.4607 64.1504 68.6398C64.5475 68.8188 64.8893 69.0711 65.1758 69.3966C65.4622 69.7221 65.682 70.1046 65.835 70.5441C65.9912 70.9803 66.0693 71.4572 66.0693 71.9747V72.0822C66.0693 72.603 65.9912 73.0831 65.835 73.5226C65.682 73.9588 65.4622 74.3396 65.1758 74.6652C64.8893 74.9874 64.5475 75.2381 64.1504 75.4171C63.7565 75.5962 63.3187 75.6857 62.8369 75.6857ZM62.8369 74.5773C63.2406 74.5773 63.5758 74.4731 63.8428 74.2648C64.1097 74.0564 64.3099 73.7651 64.4434 73.3907C64.5801 73.0164 64.6484 72.5802 64.6484 72.0822V71.965C64.6484 71.4734 64.5801 71.0421 64.4434 70.671C64.3066 70.2967 64.1032 70.0053 63.833 69.797C63.5661 69.5887 63.2324 69.4845 62.832 69.4845C62.4349 69.4845 62.1045 69.5887 61.8408 69.797C61.5771 70.0021 61.3786 70.2902 61.2451 70.6613C61.1149 71.0323 61.0498 71.4669 61.0498 71.965V72.0822C61.0498 72.5802 61.1149 73.0164 61.2451 73.3907C61.3786 73.7651 61.5771 74.0564 61.8408 74.2648C62.1077 74.4731 62.4398 74.5773 62.8369 74.5773ZM66.6406 75.5831V74.7286L67.3975 74.5822V69.4796L66.6406 69.3331V68.4738H70.0098C70.5566 68.4738 71.0254 68.5584 71.416 68.7277C71.8066 68.8969 72.1061 69.1394 72.3145 69.4552C72.526 69.771 72.6318 70.1502 72.6318 70.5929C72.6318 71.0096 72.5277 71.3823 72.3193 71.7111C72.111 72.0398 71.8213 72.2986 71.4502 72.4874C71.0791 72.6762 70.651 72.7723 70.166 72.7755H68.8232V74.5822L69.585 74.7286V75.5831H66.6406ZM71.2158 75.5831L70.0195 72.5118L71.3037 72.1945L72.3389 74.587L72.9443 74.7286V75.5831H71.2158ZM68.8232 71.6769H69.9854C70.3955 71.6769 70.7015 71.5906 70.9033 71.4181C71.1084 71.2423 71.2109 70.9884 71.2109 70.6564C71.2109 70.3276 71.11 70.0656 70.9082 69.8702C70.7064 69.6717 70.4069 69.5724 70.0098 69.5724H68.8232V71.6769ZM73.4424 75.5831V74.7286L73.9502 74.6554L76.2109 68.4738H77.6709L79.917 74.6554L80.4248 74.7286V75.5831H78.0029V74.7286L78.4961 74.6407L78.1836 73.6642H75.6836L75.3711 74.6407L75.8643 74.7286V75.5831H73.4424ZM76.0205 72.6144H77.8467L77.0166 70.1779L76.9482 69.963H76.9189L76.8457 70.1925L76.0205 72.6144Z" fill="#FF6600"/>
</svg>
