<svg width="24" height="35" viewBox="0 0 24 35" fill="none" xmlns="http://www.w3.org/2000/svg">
<path d="M8 24.6665C8.55229 24.6665 9 24.0322 9 23.2498C9 22.4674 8.55229 21.8331 8 21.8331C7.44772 21.8331 7 22.4674 7 23.2498C7 24.0322 7.44772 24.6665 8 24.6665Z" fill="#FF6600"/>
<path d="M12 24.6665C12.5523 24.6665 13 24.0322 13 23.2498C13 22.4674 12.5523 21.8331 12 21.8331C11.4477 21.8331 11 22.4674 11 23.2498C11 24.0322 11.4477 24.6665 12 24.6665Z" fill="#FF6600"/>
<path d="M17 23.2498C17 24.0322 16.5523 24.6665 16 24.6665C15.4477 24.6665 15 24.0322 15 23.2498C15 22.4674 15.4477 21.8331 16 21.8331C16.5523 21.8331 17 22.4674 17 23.2498Z" fill="#FF6600"/>
<path fill-rule="evenodd" clip-rule="evenodd" d="M6.75 11.9164C6.75 7.80883 9.10051 4.47894 12 4.47894C14.4453 4.47894 16.5018 6.8482 17.0846 10.0563C17.1879 10.6246 17.5968 10.9667 17.9979 10.8204C18.3991 10.6741 18.6405 10.0949 18.5373 9.52661C17.788 5.40247 15.1463 2.35394 12 2.35394C8.27208 2.35394 5.25 6.63522 5.25 11.9164V13.762C5.02317 13.7846 4.80938 13.814 4.60825 13.8523C3.70814 14.0238 2.95027 14.3906 2.34835 15.2432C1.74643 16.096 1.48754 17.1696 1.36652 18.4447C1.24996 19.673 1.24998 21.2346 1.25 23.172V23.3275C1.24998 25.265 1.24996 26.8266 1.36652 28.0548C1.48754 29.33 1.74643 30.4035 2.34835 31.2562C2.95027 32.109 3.70814 32.4758 4.60825 32.6472C5.47522 32.8123 6.57754 32.8123 7.94513 32.8123H16.0549C17.4225 32.8123 18.5248 32.8123 19.3918 32.6472C20.2919 32.4758 21.0497 32.109 21.6517 31.2562C22.2536 30.4035 22.5125 29.33 22.6335 28.0548C22.75 26.8266 22.75 25.265 22.75 23.3275V23.172C22.75 21.2346 22.75 19.673 22.6335 18.4447C22.5125 17.1696 22.2536 16.096 21.6517 15.2432C21.0497 14.3906 20.2919 14.0238 19.3918 13.8523C18.5248 13.6872 17.4225 13.6872 16.0549 13.6873H7.94513C7.52161 13.6873 7.12353 13.6873 6.75 13.6921V11.9164ZM4.80812 15.9583C4.07435 16.0982 3.68577 16.3537 3.40901 16.7459C3.13225 17.138 2.9518 17.6884 2.85315 18.7279C2.75159 19.7981 2.75 21.2163 2.75 23.2498C2.75 25.2833 2.75159 26.7015 2.85315 27.7716C2.9518 28.8112 3.13225 29.3616 3.40901 29.7537C3.68577 30.1458 4.07435 30.4014 4.80812 30.5412C5.56347 30.685 6.56459 30.6873 8 30.6873H16C17.4354 30.6873 18.4365 30.685 19.1919 30.5412C19.9257 30.4014 20.3142 30.1458 20.591 29.7537C20.8678 29.3616 21.0482 28.8112 21.1469 27.7716C21.2484 26.7015 21.25 25.2833 21.25 23.2498C21.25 21.2163 21.2484 19.7981 21.1469 18.7279C21.0482 17.6884 20.8678 17.138 20.591 16.7459C20.3142 16.3537 19.9257 16.0982 19.1919 15.9583C18.4365 15.8145 17.4354 15.8123 16 15.8123H8C6.56459 15.8123 5.56347 15.8145 4.80812 15.9583Z" fill="#FF6600"/>
</svg>
