<svg width="61" height="60" viewBox="0 0 61 60" fill="none" xmlns="http://www.w3.org/2000/svg">
<g clip-path="url(#clip0_334_462)">
<path d="M23.3594 7.64062C28.9844 7.64062 33.5312 12.1875 33.5312 17.8125C33.5312 23.4375 28.9844 28.0312 23.3594 28.0312C17.7344 28.0312 13.1875 23.4844 13.1875 17.8594C13.1875 12.2344 17.7344 7.64062 23.3594 7.64062ZM52.2344 50.5312H39.4844L45.4375 40.2656C46.6562 38.1094 45.9062 35.3906 43.7969 34.1719C41.6875 32.9531 38.9688 33.7031 37.75 35.8125L31.7969 46.0781L22.9375 30.8906C22.0938 29.2969 20.4062 28.5 18.2969 28.5C18.0156 28.5 17.4063 28.5938 17.0781 28.6875C16.7969 28.7344 16.375 28.875 16.0469 28.9688C7.51563 31.7812 0.765625 45.4219 0.765625 59.5312C1 59.5312 21.25 59.5312 26.4062 59.5312C26.2188 59.25 26.0312 59.0156 25.8438 58.7344L15.5781 41.0156C15.25 40.4062 15.4844 39.6094 16.0469 39.2812C16.6563 38.9531 17.4531 39.1875 17.7813 39.75L27.9531 57.3281C28.7031 58.6406 30.1094 59.5312 31.75 59.5312H52.2344C54.7188 59.5312 56.6875 57.5156 56.6875 55.0781C56.7344 52.5 54.6719 50.5312 52.2344 50.5312ZM59.7812 22.7344C59.3399 22.7344 58.8988 22.624 58.5126 22.4585C58.108 22.2748 57.6667 22.1644 57.2071 22.1644C56.7475 22.1644 56.2879 22.2748 55.9016 22.4585C55.5156 22.624 55.0743 22.7344 54.6332 22.7344C54.1919 22.7344 53.7508 22.624 53.3645 22.4585C52.96 22.2748 52.5187 22.1644 52.0591 22.1644C51.5995 22.1644 51.1398 22.2748 50.7536 22.4585C50.3676 22.624 49.9263 22.7344 49.4849 22.7344C49.0253 22.7344 48.6025 22.624 48.2163 22.4585C47.8117 22.2748 47.3704 22.1644 46.9108 22.1644C46.4512 22.1644 45.9916 22.2748 45.6053 22.4585C45.2193 22.624 44.778 22.7344 44.3366 22.7344C43.8953 22.7344 43.4542 22.624 43.068 22.4585C42.6634 22.2748 42.2221 22.1644 41.7625 22.1644C41.3029 22.1644 40.8433 22.2748 40.457 22.4585C40.071 22.624 39.6297 22.7344 39.1884 22.7344V20.8221C39.648 20.8221 40.0708 20.7117 40.457 20.5462C40.843 20.3625 41.3029 20.2521 41.7625 20.2521C42.2221 20.2521 42.6634 20.3625 43.068 20.5462C43.454 20.7117 43.8953 20.8221 44.3366 20.8221C44.7962 20.8221 45.2191 20.7117 45.6053 20.5462C45.9913 20.3625 46.4512 20.2521 46.9108 20.2521C47.3704 20.2521 47.8117 20.3625 48.2163 20.5462C48.6023 20.7117 49.0253 20.8221 49.4849 20.8221C49.9263 20.8221 50.3673 20.7117 50.7536 20.5462C51.1396 20.3625 51.5995 20.2521 52.0591 20.2521C52.5187 20.2521 52.96 20.3625 53.3645 20.5462C53.7505 20.7117 54.1736 20.8221 54.6332 20.8221C55.0928 20.8221 55.5156 20.7117 55.9019 20.5462C56.2879 20.3625 56.7477 20.2521 57.2073 20.2521C57.667 20.2521 58.1266 20.3625 58.5128 20.5462C58.8988 20.7117 59.3219 20.8221 59.7815 20.8221V22.7344H59.7812ZM39.7954 14.7916H51.5073V0.46875L39.7954 14.7916ZM52.6291 14.7916H59.6343C60.1675 9.66187 56.0859 5.37797 52.6291 3.77836V14.7916ZM58.1448 15.8212H54.9456H42.5533V18.6527C42.7188 18.7078 42.9027 18.7446 43.0682 18.8365C43.4542 19.002 43.8955 19.1123 44.3369 19.1123C44.7965 19.1123 45.2193 19.002 45.6055 18.8365C45.9916 18.6527 46.4514 18.5423 46.911 18.5423C47.3706 18.5423 47.8302 18.6527 48.2165 18.8365C48.6025 19.002 49.0256 19.1123 49.4852 19.1123C49.9265 19.1123 50.3676 19.002 50.7538 18.8365C51.1398 18.6527 51.5997 18.5423 52.0593 18.5423C52.5189 18.5423 52.9602 18.6527 53.3648 18.8365C53.7508 19.002 54.1738 19.1123 54.6334 19.1123C54.7253 19.1123 54.7989 19.0941 54.8908 19.0755L54.9091 19.0938C54.9641 19.0938 55.0009 19.0755 55.0563 19.0755C55.1666 19.0573 55.2585 19.0573 55.3689 19.0205C56.2881 18.8367 56.8766 18.1195 56.8766 18.1195L58.6785 15.858H58.1453V15.8212H58.1448Z" fill="#ED5303"/>
</g>
<defs>
<clipPath id="clip0_334_462">
<rect width="60" height="60" fill="white" transform="translate(0.25)"/>
</clipPath>
</defs>
</svg>
