<svg width="60" height="60" viewBox="0 0 60 60" fill="none" xmlns="http://www.w3.org/2000/svg">
<path d="M30.0703 23.0625C33.6328 23.0625 36.4922 20.2031 36.4922 16.6406C36.4922 13.0781 33.6328 10.1953 30.0703 10.1953C26.5078 10.1953 23.6484 13.0547 23.6484 16.6172C23.6484 20.2031 26.5313 23.0625 30.0703 23.0625ZM15.1406 41.6719H3.58594C-0.164062 41.6719 -0.375 35.9531 3.65625 35.9531H13.6641L19.4063 27.4922C21.0938 25.1953 23.0391 24.0937 25.7578 24.0937H34.3125C37.0547 24.0937 38.9766 25.1016 40.6641 27.5156L46.4297 35.9766H56.5078C60.5391 35.9766 60.3047 41.6953 56.6484 41.6953H45.0937C44.1797 41.6953 43.0781 41.3672 42.4219 40.3828L38.0156 34.1016L37.9922 49.8516H22.2188L22.1953 34.1016L17.7891 40.3828C17.1563 41.3438 16.0547 41.6719 15.1406 41.6719ZM7.26562 32.8125C11.0156 32.8125 14.0625 29.7656 14.0625 26.0156C14.0625 22.2656 11.0156 19.2188 7.26562 19.2188C3.51562 19.2188 0.46875 22.2656 0.46875 26.0391C0.46875 29.7891 3.51562 32.8125 7.26562 32.8125ZM6.89062 26.6016C5.64844 26.1563 4.875 25.5234 4.875 24.4219C4.875 23.3906 5.55469 22.5703 6.82031 22.3125V21.1875H7.75781V22.2656C8.53125 22.2656 9.09375 22.4297 9.51562 22.6406L9.14062 23.9766C8.83594 23.8594 8.32031 23.625 7.64062 23.625C6.96094 23.625 6.5625 23.9766 6.5625 24.3047C6.5625 24.7734 7.00781 24.9609 7.94531 25.3359C9.23438 25.8047 9.82031 26.4609 9.82031 27.5156C9.82031 28.5703 9.16406 29.3906 7.78125 29.6953V30.7734H6.84375V29.7422C6.02344 29.7422 5.20313 29.5312 4.82813 29.2969L5.17969 27.9141C5.625 28.125 6.30469 28.3828 7.03125 28.3828C7.80469 28.3828 8.20312 28.0312 8.20312 27.5625C8.20312 27.0937 7.78125 26.9531 6.89062 26.6016ZM52.7344 19.2188C48.9844 19.2188 45.9375 22.2656 45.9375 26.0156C45.9375 29.7656 48.9844 32.8125 52.7344 32.8125C56.4844 32.8125 59.5312 29.7656 59.5312 26.0156C59.5312 22.2656 56.4844 19.2188 52.7344 19.2188ZM55.4297 29.9297L52.7344 28.5234L50.0625 29.9297L50.5781 26.9531L48.3984 24.8438L51.3984 24.3984L52.7344 21.6797L54.0703 24.3984L57.0703 24.8203L54.9141 26.9297L55.4297 29.9297Z" fill="#ED5303"/>
</svg>
