<svg width="60" height="50" viewBox="0 0 60 50" fill="none" xmlns="http://www.w3.org/2000/svg">
<path d="M30.0703 19.2188C33.6328 19.2188 36.4922 16.8359 36.4922 13.8672C36.4922 10.8984 33.6328 8.49609 30.0703 8.49609C26.5078 8.49609 23.6484 10.8789 23.6484 13.8477C23.6484 16.8359 26.5312 19.2188 30.0703 19.2188ZM15.1406 34.7266H3.58594C-0.164062 34.7266 -0.375 29.9609 3.65625 29.9609H13.6641L19.4062 22.9102C21.0938 20.9961 23.0391 20.0781 25.7578 20.0781H34.3125C37.0547 20.0781 38.9766 20.918 40.6641 22.9297L46.4297 29.9805H56.5078C60.5391 29.9805 60.3047 34.7461 56.6484 34.7461H45.0938C44.1797 34.7461 43.0781 34.4727 42.4219 33.6523L38.0156 28.418L37.9922 41.543H22.2188L22.1953 28.418L17.7891 33.6523C17.1562 34.4531 16.0547 34.7266 15.1406 34.7266ZM7.26562 27.3438C11.0156 27.3438 14.0625 24.8047 14.0625 21.6797C14.0625 18.5547 11.0156 16.0156 7.26562 16.0156C3.51562 16.0156 0.46875 18.5547 0.46875 21.6992C0.46875 24.8242 3.51562 27.3438 7.26562 27.3438ZM6.89062 22.168C5.64844 21.7969 4.875 21.2695 4.875 20.3516C4.875 19.4922 5.55469 18.8086 6.82031 18.5938V17.6562H7.75781V18.5547C8.53125 18.5547 9.09375 18.6914 9.51562 18.8672L9.14062 19.9805C8.83594 19.8828 8.32031 19.6875 7.64062 19.6875C6.96094 19.6875 6.5625 19.9805 6.5625 20.2539C6.5625 20.6445 7.00781 20.8008 7.94531 21.1133C9.23438 21.5039 9.82031 22.0508 9.82031 22.9297C9.82031 23.8086 9.16406 24.4922 7.78125 24.7461V25.6445H6.84375V24.7852C6.02344 24.7852 5.20312 24.6094 4.82812 24.4141L5.17969 23.2617C5.625 23.4375 6.30469 23.6523 7.03125 23.6523C7.80469 23.6523 8.20312 23.3594 8.20312 22.9688C8.20312 22.5781 7.78125 22.4609 6.89062 22.168ZM52.7344 16.0156C48.9844 16.0156 45.9375 18.5547 45.9375 21.6797C45.9375 24.8047 48.9844 27.3438 52.7344 27.3438C56.4844 27.3438 59.5312 24.8047 59.5312 21.6797C59.5312 18.5547 56.4844 16.0156 52.7344 16.0156ZM55.4297 24.9414L52.7344 23.7695L50.0625 24.9414L50.5781 22.4609L48.3984 20.7031L51.3984 20.332L52.7344 18.0664L54.0703 20.332L57.0703 20.6836L54.9141 22.4414L55.4297 24.9414Z" fill="#ED5303"/>
</svg>
