<svg width="61" height="53" viewBox="0 0 61 53" fill="none" xmlns="http://www.w3.org/2000/svg">
<path d="M52.3906 40.375L38.8906 43.4688C38.7969 44.125 38.5156 44.8281 38.0938 45.3906C37.2969 46.6094 36.0781 47.5 34.6719 47.875C33.2656 48.2031 31.7656 47.9688 30.5469 47.125L18.9219 39.7188C18.3594 39.3906 18.2656 38.7344 18.5938 38.2188C18.9219 37.7031 19.5781 37.5625 20.0469 37.8906L31.7188 45.2969C33.2656 46.2344 35.2813 45.8125 36.2656 44.3125C37.25 42.8125 36.7812 40.75 35.2812 39.7656L20.75 30.5781C18.3594 29.0781 15.5937 27.9063 12.9687 29.2188L0.921875 36.0625L0.968749 49.375L9.54687 43.4219C10.9062 43.0938 12.4062 43.375 13.6719 44.1719L23.7969 50.5469C26.2813 52.0938 29.3281 52.4688 31.9531 51.7656L53.8906 46.75C55.625 46.375 56.7969 44.6406 56.375 42.7656C55.9063 41.0781 54.1719 40 52.3906 40.375ZM42.9688 36.8594C53.0938 36.25 60.7812 27.5313 60.125 17.4063C59.5156 7.28127 50.7969 -0.406234 40.6719 0.250016C30.5469 0.859391 22.8594 9.57814 23.5156 19.7031C24.125 29.7813 32.8438 37.4688 42.9688 36.8594ZM37.7188 14.7813C37.2031 13.7969 38.6562 13.2344 39.4062 12.4844C40.3438 11.5 42.3594 9.85939 42.125 9.25001C41.8906 8.59376 39.8281 6.76564 38.7031 7.18751C38.4688 7.18751 37.1562 8.64064 36.875 8.87501C36.875 8.35939 36.7813 8.07814 36.7813 7.60939C36.7813 7.28126 36.125 7.00001 36.1719 6.76564C36.2188 6.20314 37.625 5.12502 37.9531 4.70314C37.6719 4.51564 36.7344 3.85939 36.5 3.95314C35.8906 4.28126 35.1406 4.51564 34.4844 4.79689C34.4844 4.56251 34.4375 4.32814 34.3906 4.18751C35.6563 3.53126 37.0156 3.06251 38.4219 2.73439L39.6875 3.20314L40.625 4.18751L41.5625 5.07814C41.5625 5.07814 42.125 5.31251 42.3594 5.31251C42.6406 5.26564 43.5312 4.09376 43.5312 4.09376L43.1563 3.20314L43.1094 2.40627C45.6406 2.64064 47.9844 3.39064 50.0938 4.70314C49.7656 4.75002 49.2969 4.79689 48.875 4.93752C48.6875 4.84377 47.7031 5.03127 47.75 5.45314C47.7969 5.78127 49.5313 7.18751 50.2813 8.40626C51.0313 9.67189 53.1406 10.4688 53.5156 11.875C53.8906 13.5156 53.2813 15.625 53.5625 17.5938C53.8438 19.5156 55.9531 21.5313 55.9531 21.5313C55.9531 21.5313 56.8906 21.8125 57.6406 21.625C57.0781 24.4844 55.8125 27.1094 53.8438 29.3594C51.6406 31.8438 48.875 33.5781 45.7344 34.3281C46.1094 33.2031 46.8594 32.125 47.5625 31.5156C48.1719 30.9531 48.9219 29.9688 49.2031 29.2188C49.4844 28.4219 49.8594 27.7656 50.3281 27.0156C50.8906 26.0313 48.5938 24.625 47.8438 24.3906C46.1563 23.7813 44.8906 22.9375 43.4375 22C42.3594 21.3438 39.125 22.8438 37.9062 22.375C36.2656 21.7656 35.7031 21.25 34.25 20.3125C32.75 19.3281 33.1719 17.2188 33.0781 15.6719C34.2031 15.6719 35.75 15.2031 36.5469 16.0469C36.7813 16.3281 37.6719 17.5 38.1875 17.0313C38.75 16.5156 37.9063 15.1094 37.7188 14.7813ZM28.7188 9.01564C28.8125 9.81251 29.2344 10.4219 29.2344 10.9844C29.2344 13.1875 29.0469 14.5 30.4531 16.2344C31.0156 16.8906 31.2031 17.9219 31.4375 18.7656C31.7188 19.5625 32.6562 19.9375 33.3594 20.4063C34.7188 21.2969 36.0313 22.4219 37.4844 23.2188C38.4219 23.7344 38.9844 24.0156 38.8438 25.1406C38.6562 26.0313 38.6562 26.5938 38.2344 27.4375C38.1406 27.7188 38.8906 29.2188 39.125 29.4063C39.875 30.0156 40.5781 30.625 41.375 31.1875C42.5938 32.0781 41.375 33.3906 40.9063 34.75C37.3438 34.5156 33.9219 33.1094 31.1563 30.7188C27.9219 27.8594 26 23.875 25.7188 19.6094C25.4375 15.6719 26.375 12.0625 28.7188 9.01564Z" fill="#ED5303"/>
</svg>
